PathFileType	4	(X/Y/Z)	./resultDataOpenSim/trcMotMarkerGrf/sub09/qtm-04-05.trc
DataRate	CameraRate	NumFrames	NumMarkers	Units	OrigDataRate	OrigDataStartFrame	OrigNumFrames
250.000000	250.000000	8	24	m	250.000000	126	501
Frame#	Time	L.Toe.Tip			R.Toe.Tip			L.Ankle.Lat			R.Ankle.Lat			L.Ankle.Med			R.Ankle.Med			L.Heel			R.Heel			L.Knee.Lat			R.Knee.Lat			L.Knee.Med			R.Knee.Med			L.Thigh.Upper			R.Thigh.Upper			L.ASIS			R.ASIS			V.Sacral			L.Acromium			R.Acromium			C7			L.Elbow			R.Elbow			L.Wrist.Lat			R.Wrist.Lat
		X1	Y1	Z1	X2	Y2	Z2	X3	Y3	Z3	X4	Y4	Z4	X5	Y5	Z5	X6	Y6	Z6	X7	Y7	Z7	X8	Y8	Z8	X9	Y9	Z9	X10	Y10	Z10	X11	Y11	Z11	X12	Y12	Z12	X13	Y13	Z13	X14	Y14	Z14	X15	Y15	Z15	X16	Y16	Z16	X17	Y17	Z17	X18	Y18	Z18	X19	Y19	Z19	X20	Y20	Z20	X21	Y21	Z21	X22	Y22	Z22	X23	Y23	Z23	X24	Y24	Z24

126	0.5	-0.2217345	0.094497425	-0.026778695	-0.6476321	0.038790638	0.083426834	-0.37257179	0.10290903	-0.059915725	-0.79680951	0.05679276	0.10430986	-0.35055066	0.12241108	0.034576402	-0.77746938	0.093033532	0.013584014	-0.43283569	0.052659521	-0.0093624801	-0.86098935	0.035932899	0.048626892	-0.38219156	0.5217532	-0.094095952	-0.6506681	0.49043141	0.17563765	-0.38373907	0.51707906	0.031078474	-0.66071889	0.48269228	0.047447128	-0.58361604	0.89012127	-0.13648877	-0.63869851	0.89750356	0.23474264	-0.51785912	0.97286311	-0.067472111	-0.52953806	0.97713444	0.17180125	-0.68800836	1.0351884	0.040503306	-0.51171246	1.4248099	-0.11836511	-0.53324476	1.4341972	0.21044199	-0.58727532	1.4826206	0.044051367	-0.67070414	1.0938701	-0.16834777	-0.6526165	1.0732815	0.30313335	-0.56428713	0.85482474	-0.20540978	-0.39841856	0.96614726	0.23483809
127	0.504	-0.20361474	0.096425117	-0.025687913	-0.64763546	0.038785181	0.083496274	-0.35469462	0.10146852	-0.058958874	-0.79650112	0.057120752	0.10432744	-0.33319549	0.12186206	0.035667013	-0.77733288	0.092995221	0.013477369	-0.41377272	0.049999611	-0.0082367234	-0.86098333	0.035990946	0.048480313	-0.37575073	0.51956446	-0.094095655	-0.6483296	0.48971488	0.17551215	-0.37683766	0.51542131	0.03114487	-0.65862709	0.48226556	0.047332999	-0.57728096	0.88835894	-0.13634966	-0.63283385	0.89674235	0.23463094	-0.51128013	0.97126421	-0.06723148	-0.52347959	0.97612597	0.17207475	-0.68176917	1.0337355	0.040463693	-0.50588957	1.4236467	-0.11822333	-0.52749977	1.4329507	0.21058633	-0.58163981	1.4813368	0.044287595	-0.66543869	1.0931962	-0.16843756	-0.64577491	1.0715005	0.30324036	-0.56052329	0.85371946	-0.20595208	-0.39061878	0.96729275	0.23410644
128	0.508	-0.18577483	0.09852577	-0.024482258	-0.64762084	0.038809385	0.083582781	-0.33701802	0.10021668	-0.057973428	-0.79626049	0.05741739	0.10434693	-0.31604624	0.12148141	0.03671545	-0.77718018	0.092954345	0.013353924	-0.39491117	0.047571475	-0.0071392371	-0.86097411	0.036062295	0.048321234	-0.36948224	0.51731841	-0.094120811	-0.64578129	0.48900013	0.175403	-0.37024107	0.51357561	0.03116209	-0.65631888	0.4817954	0.047272361	-0.57064134	0.88654208	-0.136131	-0.62703732	0.8958361	0.23460069	-0.50464961	0.96960121	-0.066976226	-0.5173961	0.97503475	0.17234049	-0.67543925	1.0321701	0.040400714	-0.50005618	1.4224047	-0.11809003	-0.5217404	1.431628	0.2107103	-0.57591221	1.479962	0.044423107	-0.6602853	1.092451	-0.1685074	-0.63903981	1.0696398	0.3035966	-0.55660638	0.85258817	-0.20642894	-0.38284797	0.96832333	0.23339304
129	0.512	-0.16825066	0.10077952	-0.023213492	-0.64760088	0.038842027	0.083653537	-0.31964116	0.09911304	-0.056981493	-0.79613366	0.057637599	0.10434775	-0.29910883	0.12124706	0.037692714	-0.77700693	0.092911078	0.013211681	-0.37628183	0.045363097	-0.0060532908	-0.8609618	0.036151577	0.04815366	-0.36334779	0.51500077	-0.094160507	-0.64306164	0.48830065	0.1753465	-0.36393534	0.51150278	0.03114287	-0.65367988	0.48128719	0.047315923	-0.56390315	0.88464616	-0.1358612	-0.62127253	0.89481621	0.23462453	-0.49796875	0.96788705	-0.06670745	-0.5112733	0.97385754	0.17259174	-0.66901112	1.0304805	0.040257743	-0.49421498	1.4210827	-0.11796752	-0.51599004	1.4302393	0.21083019	-0.57006765	1.4785034	0.044427907	-0.65517296	1.091631	-0.16858191	-0.63247057	1.0676755	0.30431638	-0.55270709	0.851381	-0.20693506	-0.37510968	0.96923972	0.23270038
130	0.516	-0.15107101	0.10316541	-0.021943415	-0.64759675	0.038842676	0.083677929	-0.30260958	0.098139023	-0.056015292	-0.79607329	0.05780768	0.10433426	-0.28242514	0.12115997	0.038599391	-0.77681703	0.092863579	0.013050096	-0.35790749	0.043368296	-0.0049786693	-0.86094492	0.036265229	0.047982164	-0.35729071	0.51260806	-0.094193109	-0.64027799	0.48760205	0.17537258	-0.3578011	0.50920726	0.031140059	-0.65081921	0.48073795	0.047411694	-0.55730682	0.88263817	-0.13556364	-0.61550465	0.89372729	0.23467772	-0.49125955	0.96612299	-0.066426689	-0.50511916	0.97261092	0.1728374	-0.66249326	1.0286917	0.040029384	-0.48836377	1.4196866	-0.11786053	-0.51024612	1.4287874	0.21095608	-0.56420036	1.4770003	0.044398323	-0.65002479	1.0907349	-0.16868283	-0.62600994	1.0656107	0.30526527	-0.54890034	0.85007716	-0.20751712	-0.36742289	0.97003534	0.23202683
131	0.52	-0.13426047	0.10566873	-0.020726579	-0.64761073	0.03879754	0.083661819	-0.28591463	0.09730114	-0.055105931	-0.79602935	0.057951379	0.10430713	-0.26605779	0.12120643	0.039434692	-0.77662256	0.092805117	0.012864117	-0.33981074	0.041579305	-0.0039365844	-0.86092192	0.036407923	0.047809316	-0.35124902	0.51013156	-0.094181717	-0.63752388	0.48687214	0.17549613	-0.35166901	0.50673372	0.03122098	-0.64795118	0.48013256	0.047479094	-0.55095062	0.88050603	-0.13524683	-0.60971476	0.89258239	0.23474301	-0.48455482	0.96430556	-0.066135032	-0.49893544	0.97131131	0.17308913	-0.65593111	1.026846	0.03984448	-0.48249838	1.4182231	-0.11776623	-0.50448723	1.4272722	0.21108058	-0.55841245	1.475475	0.044446875	-0.64482343	1.0897645	-0.16881113	-0.61951271	1.0634823	0.30612137	-0.54512691	0.84869285	-0.20814583	-0.35979372	0.97070584	0.23137187
132	0.524	-0.11783678	0.10829127	-0.019603397	-0.64762159	0.038729992	0.083640745	-0.26952602	0.096618745	-0.054271681	-0.79598501	0.058069747	0.10425528	-0.25003833	0.12136088	0.040204969	-0.77643498	0.092731573	0.012650189	-0.3220165	0.039978637	-0.0029613699	-0.86089204	0.036581972	0.047632714	-0.34516372	0.50755475	-0.094093894	-0.63483337	0.48608159	0.17569591	-0.34540135	0.5041361	0.031429439	-0.64515576	0.47947641	0.047494744	-0.54474396	0.87826683	-0.13492263	-0.60389613	0.89137476	0.23480806	-0.47786592	0.96243723	-0.065835196	-0.49271188	0.96996291	0.17335298	-0.64940434	1.0249571	0.039816932	-0.47662319	1.4166969	-0.11768488	-0.4987001	1.4256933	0.21119119	-0.55270272	1.4739058	0.044583527	-0.63957839	1.0887202	-0.16896359	-0.61288048	1.0613202	0.30667402	-0.54132651	0.84724203	-0.20878887	-0.3522106	0.97125171	0.2307342
133	0.528	-0.1018043	0.11103161	-0.018595691	-0.64760998	0.038665921	0.083639585	-0.25342017	0.096105037	-0.053509293	-0.79593733	0.058156796	0.10415994	-0.23437064	0.1215995	0.040925607	-0.77624803	0.09265653	0.012425145	-0.30455269	0.038543278	-0.0020854219	-0.86085327	0.036789032	0.047446885	-0.33899141	0.50487887	-0.093925292	-0.63219359	0.48522304	0.17591765	-0.33896925	0.50145749	0.031755666	-0.64233065	0.47881062	0.047500181	-0.53851155	0.87594443	-0.13460761	-0.59804276	0.89009848	0.23485995	-0.47117304	0.96052498	-0.065537301	-0.48644013	0.96856065	0.17362611	-0.642961	1.0229573	0.039647321	-0.47075288	1.4151133	-0.11762854	-0.49288691	1.4240476	0.21128444	-0.547003	1.4722573	0.044743902	-0.63430083	1.0876011	-0.16913521	-0.60610732	1.0591156	0.30693514	-0.53751051	0.84571914	-0.20945926	-0.34466395	0.97167359	0.23010766
